<svg xmlns="http://www.w3.org/2000/svg"  viewBox="0 0 64 64" width="64px" height="64px"><g data-name="08-Pizza"><rect width="16.971" height="9.899" x="4.015" y="46.55" fill="#fc6067" transform="rotate(45 12.5 51.5)"/><rect width="9.899" height="3" x="12.49" y="54.939" fill="#fb4f56" transform="rotate(-45 17.44 56.44)"/><path fill="#fc6067" d="M11,3H61v32H11Z"/><path fill="#fb4f56" d="M44,27,42,31H30L28,27Z"/><path fill="#fb4f56" d="M44,19l-2,4H30l-2-4Z"/><path fill="#fb4f56" d="M44,2.9999l-2,4H30l-2-4Z"/><path fill="#fb4f56" d="M44,10.99991l-2,3.99994H30l-2-3.99994Z"/><path fill="#fdd5a6" d="M20.584,52.41611,24,49a6.23253,6.23253,0,0,1,5-2H43a5.43592,5.43592,0,0,0,4-2l5.1772-5.17736a2.82839,2.82839,0,0,0-3.99995-3.99994L43,41H34a3,3,0,0,0,0-6.00009H24c-4,0-6,1.99992-8.00005,3.99995L11.584,43.416Z"/><path fill="#fdcc93" d="M51.15622,35.17387a3.77211,3.77211,0,0,1-1.09568,2.52737L44.87888,42.877a6.51731,6.51731,0,0,1-4.70117,2.29692H26.17381A5.01443,5.01443,0,0,0,21.87694,46.879l-3.4102,3.41215,2.12111,2.12114L24,49.00015a6.23252,6.23252,0,0,1,5-2H43a5.43591,5.43591,0,0,0,4-2l5.17772-5.1777a2.81864,2.81864,0,0,0-1.02149-4.6484Z"/><path fill="#fb4f56" d="M57.99607,3v32H61V3Z"/><path d="M61,2H11a1,1,0,0,0-1,1V35a1,1,0,0,0,1,1h6.84308A22.714,22.714,0,0,0,15.293,38.293l-3.793,3.793-.793-.793a.99962.99962,0,0,0-1.41406,0l-7,7a.99962.99962,0,0,0,0,1.41406l12,12a.99963.99963,0,0,0,1.41406,0l7-7a.99962.99962,0,0,0,0-1.41406l-.793-.793,2.793-2.793A5.25957,5.25957,0,0,1,29,48H43a6.4395,6.4395,0,0,0,4.707-2.293l5.17725-5.17724A3.82112,3.82112,0,0,0,53.5235,36H61a1,1,0,0,0,1-1V3A1,1,0,0,0,61,2ZM12,26V20H27.38184l1.72363,3.44727A.99985.99985,0,0,0,30,24H42a.99985.99985,0,0,0,.89453-.55273L44.61816,20H60v6Zm30.38184,2-1,2H30.61816l-1-2Zm-15-16,1.72363,3.44727A.99985.99985,0,0,0,30,16H42a.99985.99985,0,0,0,.89453-.55273L44.61816,12H60v6H12V12Zm2.23632,0H42.38184l-1,2H30.61816Zm12.76368,8-1,2H30.61816l-1-2Zm0-16-1,2H30.61816l-1-2Zm-15,0,1.72363,3.44727A.99985.99985,0,0,0,30,8H42a.99985.99985,0,0,0,.89453-.55273L44.61816,4H60v6H12V4ZM15,59.58594,4.41406,49,10,43.41406,20.58594,54ZM51.47021,36.52979a1.83068,1.83068,0,0,1,0,2.58593L46.293,44.293A4.47013,4.47013,0,0,1,43,46H29a7.17075,7.17075,0,0,0-5.707,2.293l-2.793,2.793L12.91406,43.5l3.793-3.793C18.69629,37.71777,20.41406,36,24,36H34a2,2,0,0,1,0,4H27a1,1,0,0,0,0,2H43a1.00012,1.00012,0,0,0,.707-.293l5.17725-5.17724A1.818,1.818,0,0,1,50.12616,36h.10217A1.818,1.818,0,0,1,51.47021,36.52979ZM37.44354,36h9.1424l-4,4h-5.1424a3.87238,3.87238,0,0,0,0-4Zm12.7771-2c-.02905-.00037-.05774-.00037-.08679,0H12V28H27.38184l1.72363,3.44727A.99985.99985,0,0,0,30,32H42a.99985.99985,0,0,0,.89453-.55273L44.61816,28H60v6Z"/></g></svg>